<svg width="79" height="19" fill="none" xmlns="http://www.w3.org/2000/svg"><path d="M5.064 9.096c-.84 0-1.6-.184-2.28-.552A4.175 4.175 0 011.2 7.008C.816 6.352.624 5.616.624 4.8c0-.816.192-1.548.576-2.196a4.04 4.04 0 011.596-1.536c.68-.376 1.44-.564 2.28-.564.656 0 1.256.112 1.8.336.544.216 1.008.54 1.392.972l-.78.756c-.632-.664-1.42-.996-2.364-.996-.624 0-1.188.14-1.692.42-.504.28-.9.668-1.188 1.164a3.244 3.244 0 00-.42 1.644c0 .608.14 1.16.42 1.656.288.488.684.872 1.188 1.152.504.28 1.068.42 1.692.42.936 0 1.724-.336 2.364-1.008l.78.756c-.384.432-.852.76-1.404.984a4.684 4.684 0 01-1.8.336zM13.401.504c1.12 0 2.004.328 2.652.984.648.648.972 1.58.972 2.796V9h-1.2V6.684h-4.848V9H9.801V4.284c0-1.216.324-2.148.972-2.796.648-.656 1.524-.984 2.628-.984zm2.424 5.136V4.176c0-.856-.216-1.504-.648-1.944-.424-.44-1.016-.66-1.776-.66s-1.356.22-1.788.66c-.424.44-.636 1.088-.636 1.944V5.64h4.848zM26.743.6V9h-1.2V5.256h-4.824V9h-1.2V.6h1.2v3.612h4.824V.6h1.2zm8.32 1.812a6.471 6.471 0 00-2.616-.828V9h-1.188V1.584a6.486 6.486 0 00-2.628.828l-.42-.948c1.072-.64 2.28-.96 3.624-.96 1.36 0 2.576.32 3.648.96l-.42.948zm7.957 5.712c-.36.304-.832.544-1.416.72a6.88 6.88 0 01-1.908.252c-.768 0-1.42-.1-1.956-.3-.536-.208-.94-.492-1.212-.852a2.014 2.014 0 01-.408-1.248c0-.48.136-.892.408-1.236.28-.352.64-.604 1.08-.756-.352-.16-.628-.4-.828-.72-.2-.328-.3-.704-.3-1.128 0-.44.124-.836.372-1.188.256-.352.64-.632 1.152-.84.512-.216 1.136-.324 1.872-.324.52 0 1.024.056 1.512.168.496.112.924.272 1.284.48l-.348.96c-.72-.384-1.52-.576-2.4-.576-.728 0-1.284.132-1.668.396-.384.256-.576.592-.576 1.008 0 .416.148.736.444.96.296.224.72.336 1.272.336h2.16v1.032h-2.208c-.632 0-1.128.112-1.488.336-.36.224-.54.56-.54 1.008 0 .456.204.812.612 1.068.408.256 1.016.384 1.824.384.56 0 1.092-.076 1.596-.228.512-.16.932-.376 1.26-.648l.408.936zM44.937.6l2.196 3.072L49.328.6h1.404L47.89 4.632 50.96 9h-1.416l-2.413-3.348L44.733 9h-1.38l3.06-4.32L43.558.6h1.38zm14.478 0V9h-1.2V5.256H53.39V9h-1.2V.6h1.2v3.612h4.824V.6h1.2zm9.58 0V9h-1.152V7.812c-.568.856-1.48 1.284-2.736 1.284-1 0-1.784-.304-2.352-.912-.56-.608-.84-1.476-.84-2.604V.6h1.2v4.944c0 .808.2 1.424.6 1.848.4.424.948.636 1.644.636.752 0 1.348-.224 1.788-.672.44-.448.66-1.112.66-1.992V.6h1.188zm5.495 4.704h-1.752V9h-1.176V.6h1.176v3.648h1.776L77.154.6h1.284l-3 4.068L78.582 9h-1.368L74.49 5.304zM25.808 17v-4.2h.568v1.856h2.648V12.8h.568V17h-.568v-1.856h-2.648V17h-.568zm8.007 0v-.928l-.024-.152v-1.552c0-.357-.102-.632-.304-.824-.198-.192-.494-.288-.889-.288-.271 0-.53.045-.775.136-.246.09-.454.21-.625.36l-.256-.424c.214-.181.47-.32.768-.416.3-.101.614-.152.944-.152.544 0 .963.136 1.256.408.3.267.449.675.449 1.224V17h-.544zm-1.448.04c-.315 0-.59-.05-.824-.152a1.26 1.26 0 01-.528-.432 1.139 1.139 0 01-.184-.64c0-.219.05-.416.152-.592.106-.181.277-.325.511-.432.24-.112.56-.168.96-.168h1.449v.424H32.47c-.406 0-.688.072-.848.216a.703.703 0 00-.233.536c0 .24.094.432.28.576.187.144.448.216.785.216.32 0 .594-.072.824-.216a1.28 1.28 0 00.511-.64l.129.392a1.33 1.33 0 01-.56.664c-.262.165-.593.248-.992.248zm8.477-.312v-3.432H38.82l-.048.936c-.01.283-.03.56-.056.832a4.45 4.45 0 01-.12.752c-.053.224-.13.408-.232.552a.563.563 0 01-.392.24l-.568-.104a.494.494 0 00.408-.176c.107-.128.19-.301.248-.52.059-.219.102-.467.128-.744.027-.283.048-.57.064-.864l.056-1.4h3.104v3.928h-.568zm-3.616 1.288v-1.512h4.84v1.512h-.536V17h-3.768v1.016h-.536zm7.675-.976c-.405 0-.77-.09-1.096-.272a2.078 2.078 0 01-.76-.76 2.194 2.194 0 01-.28-1.112c0-.421.093-.792.28-1.112.187-.32.44-.57.76-.752.32-.181.685-.272 1.096-.272a2.2 2.2 0 011.104.272c.326.181.579.432.76.752.187.32.28.69.28 1.112 0 .416-.093.787-.28 1.112a2 2 0 01-.76.76 2.229 2.229 0 01-1.104.272zm0-.504c.304 0 .574-.067.808-.2.235-.139.419-.33.552-.576a1.75 1.75 0 00.208-.864c0-.33-.07-.619-.208-.864a1.415 1.415 0 00-.552-.568 1.542 1.542 0 00-.8-.208c-.299 0-.565.07-.8.208a1.47 1.47 0 00-.56.568 1.726 1.726 0 00-.208.864c0 .325.07.613.208.864.139.245.325.437.56.576.235.133.499.2.792.2zm3.358.464v-4.2h.576l1.904 3.224h-.24l1.936-3.224h.528V17h-.52v-3.552l.104.048-1.808 2.992h-.256l-1.824-3.024.12-.024V17h-.52z" fill="#0E43A9"/></svg>