<svg width="69" height="64" fill="none" xmlns="http://www.w3.org/2000/svg"><g stroke="#020C20"><path d="M1 30.13C1 15.504 12.908 3.639 27.604 3.639c14.68 0 26.587 11.865 26.587 26.491 0 14.643-11.908 26.509-26.587 26.509C12.908 56.639 1 44.773 1 30.13z" fill="#869CAD" stroke-linecap="round" stroke-linejoin="round"/><path d="M35.607 29.77l12.183 6.07s.413 10.27-3.545 13.494l-8.93-3.498s-6.798-9.087.292-16.066z" fill="#BDCDDB" stroke-linecap="round" stroke-linejoin="round"/><g stroke-linecap="round" stroke-linejoin="round"><path d="M12.271 32.136s10.257-7.356 21.218-2.692c1.446.617 4.285 2.366 4.285 2.366l1.566 26.218s-19.067 4.766-24.074 1.783c0 0 2.254-21.81-2.995-27.675z" fill="#BDCDDB"/><path d="M16.625 38.875l-1.6 23.936L39.03 63l.172-24.125s-7.124 5.127-22.577 0z" fill="#FAAC55"/><path d="M1 30.13C1 15.504 12.908 3.639 27.604 3.639c14.68 0 26.587 11.865 26.587 26.491 0 14.643-11.908 26.509-26.587 26.509C12.908 56.639 1 44.773 1 30.13z" fill="#2C63CB"/></g><path d="M34.905 51.176c-1.527-.799-3.413-1.302-4.286-1.149L28 56.5h3c1.416-.13 3.405-.69 5-1 1.595-.31 2.5-1.5 2.5-1.5-.476-.306-2.203-2.096-3.595-2.824z" fill="#F74A2D"/><path d="M17.555 49.831S5.302 50.93 3.839 53.981c0 0-1.015-5.864 1.05-10.562 1.446-3.275 3.253-11.883 6.952-12.535 0 0 3.7-1.577 4.543 5.196l1.17 13.751z" fill="#FAAC55" stroke-linecap="round" stroke-linejoin="round"/><path d="M46.74 35.308s-3.201.875-4.612 5.367c-.706 2.28-2.84 9.26 3.7 8.66l1.961-13.495-1.05-.532z" fill="#E4E4E4" stroke-linecap="round" stroke-linejoin="round"/><path d="M44.537 48.906c.345.24.775.394 1.291.428 1.841.137 4.509.48 5.576.497 1.703.018 4.697-.171 4.697-4.99 0-1.422.224-16.203.224-16.203l-6.814-1.011s-2.616 7.115-3.304 9.242c-.826 2.486-2.599 9.19-2.599 9.19-.206 1.235.12 2.298.93 2.847z" fill="#F7D7D7" stroke-linecap="round" stroke-linejoin="round"/><path d="M55.809 30.541s2.719-3.463 3.872-4.44c1.239-1.046 3.011-2.007 5.92-2.795.533-.155 1.342-1.972-.585-2.144 0 0-2.048-.12-3.15.258 0 0 3.563-.806 5.3-1.304.586-.154 1.136-2.417-.929-2.057-1.101.206-4.319 1.32-4.319 1.32l3.648-1.44c.86-.343 1.17-1.475.516-2.126a.679.679 0 00-.103-.086c-.31-.24-.723-.24-1.067-.069l-3.94 1.972 2.615-2.743s.568-2.64-3.992 0l-7.623 4.372s-1.825.652-1.807 4.681c.017 1.217-.93 4.801-.93 4.801l6.574 1.8z" fill="#F74A2D" stroke-linecap="round" stroke-linejoin="round"/><g stroke-linecap="round" stroke-linejoin="round"><path d="M35.692 48.134h2.151c.774 0 1.411-.6 1.446-1.389.154-4.08.258-15.98-3.39-19.118 0 0-1.98-.978-3.614.343a1.258 1.258 0 00-.31 1.56c.964 1.972 3.27 7.767 2.289 17.01a1.436 1.436 0 001.428 1.594z" fill="#F74A2D"/><path d="M38.17 44.979c0 .6-.5 1.097-1.084 1.097a1.107 1.107 0 01-1.102-1.097c0-.583.5-1.08 1.102-1.08a1.1 1.1 0 011.084 1.08z" fill="#fff"/></g><g stroke-linecap="round" stroke-linejoin="round"><path d="M18.244 48.803l2.15-.12a1.438 1.438 0 001.36-1.458c-.069-4.08-.602-15.998-4.422-18.913 0 0-2.03-.874-3.597.532-.43.394-.516 1.063-.224 1.578 1.085 1.92 3.683 7.578 3.218 16.855a1.447 1.447 0 001.515 1.526z" fill="#F74A2D"/><path d="M20.532 45.528a1.074 1.074 0 01-1.015 1.131 1.069 1.069 0 01-1.136-1.029 1.074 1.074 0 011.015-1.131 1.069 1.069 0 011.136 1.029z" fill="#fff"/></g><g stroke-linecap="round" stroke-linejoin="round"><path d="M53.279 9.983h-3.2V3.776h3.2v6.207z" fill="#2C63CB"/><path d="M47.188 12.332h20.58c.19 0 .31-.223.173-.377L58.562 1.118a.36.36 0 00-.516-.017L47.033 11.937c-.155.155-.052.395.154.395z" fill="#BDCDDB"/><path d="M64.259 11.526l-6.316-7.099-6.866 7.099v9.893H64.26v-9.893z" fill="#2C63CB"/><path d="M59.492 14.852h-3.08v6.567h3.08v-6.567z" fill="#BDCDDB"/><path d="M59.028 8.885c.034.6-.43 1.115-1.016 1.15a1.094 1.094 0 01-1.153-1.03c-.034-.6.43-1.097 1.033-1.131a1.087 1.087 0 011.136 1.011z" fill="#fff"/></g><g stroke-linecap="round" stroke-linejoin="round"><path d="M19.654 23.049l1.325 9.464s6.367 3.361 11.358-.857l-2.358-8.916-10.325.309zm13.664-4.579l-1.153.378-2.547-7.802 1.136-.377a2.743 2.743 0 013.442 1.749l.86 2.64a2.7 2.7 0 01-1.738 3.412z" fill="#F7D7D7"/><path d="M31.425 26.186l-7.297 1.784a3.24 3.24 0 01-4.095-2.058l-5.197-15.278A3.83 3.83 0 0117.314 5.8l8.415-3.052A3.868 3.868 0 0130.582 5.2l3.975 14.849c.843 2.555-.568 5.298-3.132 6.138z" fill="#F7D7D7"/><path d="M19.74 19.893a.993.993 0 00.276-.96l-1.635-5.915-2.134.72 1.876 5.761c.223.669 1.084.892 1.617.395z" fill="#5F4E6D"/><path d="M14.835 16.121S19.62 10.55 31.7 5.233c0 0-3.941-6.07-12.115-2.126-3.115 1.509-7.59 4.475-4.75 13.014z" fill="#F74A2D"/><path d="M19.034 22.294l-.482.154a2.413 2.413 0 01-3.046-1.543l-1.067-3.223a2.41 2.41 0 011.566-3.035l.465-.155 2.564 7.802z" fill="#F7D7D7"/><path d="M29.6 9.125s5.387-1.268 7.263-1.92c.705-.223 2.34-.36 1.669-2.76 0 0-.757-2.23-3.545-1.424L29.6 9.125z" fill="#BE351D"/><path d="M18.38 13.018s4.818-.6 9.275-1.87c.723-.205 1.394-.617 1.962-1.165l5.524-7.013-4.577 1.217a3.3 3.3 0 00-.637.24c-1.687.823-9.327 6.07-11.547 8.59z" fill="#F74A2D"/></g><path d="M49.219 31.913l6.866.618c1.273.12 2.443-.686 2.667-1.8l.017-.052c.224-1.098-.55-2.144-1.772-2.366l-6.815-1.27c-1.428-.274-2.822.67-2.942 1.973l-.07.703c-.085 1.114.81 2.074 2.049 2.194z" fill="#F74A2D" stroke-linecap="round" stroke-linejoin="round"/><path d="M18.14 50.432s-1.584-6.293-10.74-3.773c-2.51.686-6.76 3.704-2.597 10.014l13.337-6.241z" fill="#E5E5E5" stroke-linecap="round" stroke-linejoin="round"/><path d="M7.936 49.334c-1.756-.051-3.322 1.115-3.7 2.812-.31 1.372-.465 2.675.568 4.527 0 0 .464 3.515 9.464 1.509l12.373-2.47 1.119-6.138-19.824-.24z" fill="#F7D7D7" stroke-linecap="round" stroke-linejoin="round"/><path d="M25.694 48.871l-1.669 5.899c-.31 1.08.31 2.212 1.377 2.572l.051.017a2.12 2.12 0 002.616-1.235l2.306-5.761a2.102 2.102 0 00-1.514-2.83l-.689-.154a2.1 2.1 0 00-2.478 1.492z" fill="#F74A2D" stroke-linecap="round" stroke-linejoin="round"/></g><path d="M44.09 53.792l-8.777-.857 8.777.857z" fill="#F74A2D"/></svg>