<svg width="56" height="56" fill="none" xmlns="http://www.w3.org/2000/svg"><g fill="#023390"><path d="M53.454 28.235v-7.87c0-2.67-2.07-4.84-4.686-5.05l-7.31-12.767a5.03 5.03 0 00-3.08-2.376 5.001 5.001 0 00-3.83.514L9.492 15.273H5.09A5.096 5.096 0 000 20.364V50.91A5.096 5.096 0 005.09 56h43.273a5.096 5.096 0 005.09-5.09v-7.871C54.933 42.51 56 41.111 56 39.454v-7.636c0-1.657-1.067-3.057-2.545-3.584zM45.81 15.273H34.717l8.32-4.843 2.773 4.843zm-4.037-7.052l-12.114 7.052h-5.025l15.882-9.247 1.257 2.195zM35.83 2.886a2.461 2.461 0 011.89-.255c.65.174 1.192.594 1.529 1.182l.003.004-19.677 11.456h-5.024L35.83 2.886zm15.078 48.023a2.549 2.549 0 01-2.545 2.546H5.091a2.549 2.549 0 01-2.546-2.546V20.364a2.549 2.549 0 012.546-2.545h43.272a2.549 2.549 0 012.545 2.545V28h-7.636c-4.21 0-7.636 3.426-7.636 7.637 0 4.21 3.425 7.636 7.636 7.636h7.636v7.636zm2.546-11.454c0 .702-.57 1.273-1.273 1.273h-8.909a5.096 5.096 0 01-5.09-5.091 5.096 5.096 0 015.09-5.091h8.91c.701 0 1.272.57 1.272 1.273v7.636z"/><path d="M43.272 33.091a2.549 2.549 0 00-2.545 2.546 2.549 2.549 0 002.545 2.545 2.549 2.549 0 002.546-2.545 2.549 2.549 0 00-2.546-2.546z"/></g></svg>