<svg width="48" height="58" fill="none" xmlns="http://www.w3.org/2000/svg"><g fill-rule="evenodd" clip-rule="evenodd" fill="#023390"><path d="M24 15.25C13.651 15.25 5.25 23.651 5.25 34S13.651 52.75 24 52.75 42.75 44.349 42.75 34 34.349 15.25 24 15.25zm0 2.5c8.969 0 16.25 7.281 16.25 16.25 0 8.969-7.281 16.25-16.25 16.25-8.969 0-16.25-7.281-16.25-16.25 0-8.969 7.281-16.25 16.25-16.25z"/><path d="M22.75 21.5V34A1.25 1.25 0 0024 35.25h12.5a1.25 1.25 0 000-2.5H25.25V21.5a1.25 1.25 0 00-2.5 0z"/><path d="M20.25 7.75v2.795a23.561 23.561 0 00-8.033 2.834l-2.03-2.03a3.75 3.75 0 00-5.303 0l-3.535 3.535a3.75 3.75 0 000 5.303l2.03 2.03A23.617 23.617 0 00.25 34C.25 47.108 10.893 57.75 24 57.75c13.108 0 23.75-10.642 23.75-23.75 0-4.286-1.138-8.309-3.129-11.782l2.03-2.03a3.75 3.75 0 000-5.304l-3.535-3.535a3.75 3.75 0 00-5.303 0l-2.03 2.03a23.561 23.561 0 00-8.033-2.834V7.75H29a3.75 3.75 0 000-7.5H19a3.75 3.75 0 100 7.5h1.25zm3.75 5c11.729 0 21.25 9.521 21.25 21.25S35.729 55.25 24 55.25 2.75 45.729 2.75 34 12.271 12.75 24 12.75zm-13.93 2.018l-1.651-1.652a1.249 1.249 0 00-1.768 0l-3.535 3.535a1.249 1.249 0 000 1.769l1.652 1.65a23.897 23.897 0 015.302-5.303zm33.163 5.302l1.65-1.651a1.25 1.25 0 000-1.768l-3.534-3.535a1.25 1.25 0 00-1.769 0l-1.65 1.652a23.895 23.895 0 015.303 5.302zM25.25 10.283V7.75h-2.5v2.533a24.411 24.411 0 012.5 0zm5-6.283A1.25 1.25 0 0029 2.75H19a1.25 1.25 0 000 2.5h10A1.25 1.25 0 0030.25 4z"/></g></svg>