<svg width="42" height="58" fill="none" xmlns="http://www.w3.org/2000/svg"><path d="M38.813 3.687h-1.875a.937.937 0 000 1.875h1.875a.937.937 0 01.937.938v2.812h-15V6.5a.938.938 0 01.938-.938h7.5a.937.937 0 100-1.875h-7.5A2.812 2.812 0 0022.875 6.5v3.75a.938.938 0 00.938.938h3.75v5.259l-1.238.412a.937.937 0 00-.248 1.653c.16.115.352.176.548.175.102-.002.203-.018.3-.046l.638-.216v2.71l-1.238.412a.937.937 0 00-.248 1.653.945.945 0 00.848.128l.638-.215v2.709l-1.238.412a.937.937 0 00-.248 1.653c.16.115.352.176.548.175.102-.002.203-.018.3-.046l.638-.216v2.71l-1.238.412a.937.937 0 00-.248 1.653c.16.114.352.175.548.175.1.013.2.013.3 0l.638-.216v1.154a2.812 2.812 0 002.812 2.812h3.75a2.813 2.813 0 002.813-2.813v-4.321L38.175 29a.94.94 0 00-.6-1.781l-.637.215v-2.756l1.237-.366a.94.94 0 10-.6-1.78l-.637.215V19.99l1.237-.366a.94.94 0 10-.6-1.781l-.637.215v-2.756l1.237-.366a.94.94 0 10-.6-1.78l-.637.215v-2.184h3.75a.937.937 0 00.937-.938V6.5a2.813 2.813 0 00-2.812-2.813zm-3.75 30a.937.937 0 01-.938.938h-3.75a.938.938 0 01-.937-.938v-1.874l5.625-1.875v3.75zm0-5.624l-5.625 1.875v-2.72l5.625-1.874v2.718zm0-4.688l-5.625 1.875v-2.719l5.625-1.875v2.719zm0-4.688l-5.625 1.875v-2.718l5.625-1.875v2.719zm0-4.687l-5.625 1.875v-4.688h5.625V14zm-20.625 3.375v23.25a9.375 9.375 0 01-.516 16.5c-.133.058-.277.09-.422.094a.937.937 0 01-.82-.482.938.938 0 01-.117-.456v-6.028L9.75 48.847l-2.812 1.406v6.028a.938.938 0 01-.441.797.937.937 0 01-.938 0 9.375 9.375 0 01-.496-16.453v-2.25a.937.937 0 011.875 0v2.813a.938.938 0 01-.516.843 7.501 7.501 0 00-1.36 12.553v-4.912a.937.937 0 01.516-.834l3.75-1.876a.937.937 0 01.844 0l3.75 1.875a.937.937 0 01.516.835v4.912a7.5 7.5 0 00-1.36-12.553.938.938 0 01-.515-.843V16.811a.938.938 0 01.515-.843 7.5 7.5 0 001.36-12.553v4.959a.937.937 0 01-.516.834l-3.75 1.875a.938.938 0 01-.844 0L5.578 9.21a.938.938 0 01-.515-.834v-4.96A7.5 7.5 0 006.422 15.97a.938.938 0 01.516.844v17.812a.937.937 0 01-1.875 0v-17.25a9.375 9.375 0 01.515-16.5.937.937 0 01.938 0 .938.938 0 01.422.844v6.028L9.75 9.153l2.813-1.406V1.719a.938.938 0 01.44-.797.938.938 0 01.938 0 9.375 9.375 0 01.497 16.453zm22.415 22.406a.937.937 0 00-.853-.468h-7.5a.936.936 0 00-.816.468l-3.75 6.563a.938.938 0 000 .937l3.75 6.563a.937.937 0 00.816.468H36a.938.938 0 00.816-.468l3.75-6.563a.937.937 0 000-.937l-3.713-6.563zm-1.36 12.657h-6.487l-3.253-5.626 3.253-5.624h6.488l3.253 5.624-3.253 5.626zm-3.243-9.376a3.75 3.75 0 100 7.5 3.75 3.75 0 000-7.5zm0 5.626a1.875 1.875 0 110-3.751 1.875 1.875 0 010 3.75z" fill="#023390"/></svg>