<svg width="40" height="40" fill="none" xmlns="http://www.w3.org/2000/svg"><g fill="#000" clip-path="url(#clip0_206_888)"><path d="M38.77 22.172a2.246 2.246 0 00-1.538-.791 2.246 2.246 0 00-1.647.528l-.303.257a2.263 2.263 0 00-3.68-1.29l-.269.228a2.263 2.263 0 00-3.675-1.258l-4.52 3.83a2.674 2.674 0 00-.729-.102h-8.12c-1.82 0-3.604.516-5.143 1.49a9.607 9.607 0 00-3.55 4.008l-.276.583-4.5 5.678a.588.588 0 10.922.73l4.54-5.73a.586.586 0 00.07-.113l.306-.644a8.483 8.483 0 017.63-4.826h8.12a1.507 1.507 0 011.053 2.583 1.495 1.495 0 01-1.051.429h-5.289a.588.588 0 000 1.175h5.235a2.663 2.663 0 002.135-.991h4.968a2.24 2.24 0 001.447-.53l5.439-4.61a1.077 1.077 0 011.197-.137 1.077 1.077 0 01.536.633 1.077 1.077 0 01-.068.827c-.065.127-.155.24-.264.331l-8.585 7.276a5.334 5.334 0 01-2.819 1.23l-1.55.186a.587.587 0 00-.296 1.049.587.587 0 00.437.119l1.55-.187a6.505 6.505 0 003.438-1.5l8.585-7.276c.461-.39.742-.936.792-1.538a2.246 2.246 0 00-.529-1.647zm-10.35-1.429a1.086 1.086 0 011.528.126 1.08 1.08 0 01-.03 1.435l-4.83 4.093a2.675 2.675 0 00-.855-2.106l4.187-3.548zm-1.952 6.027l5.896-4.997a1.085 1.085 0 011.665 1.323c-.065.127-.154.24-.263.33l-3.619 3.092a1.062 1.062 0 01-.686.252h-2.993z"/><path d="M22.288 33.454l-5.532.665a.588.588 0 00-.38.207l-3.934 4.709a.588.588 0 10.902.754l3.784-4.53 5.3-.638a.59.59 0 00.514-.654.589.589 0 00-.654-.513zM10.492 17.889H11.9l.902 2.026a1.11 1.11 0 001.026.666c.45 0 .843-.255 1.026-.666l.902-2.026h3.012a.588.588 0 000-1.177h-3.394a.589.589 0 00-.537.35l-1.009 2.265-1.009-2.266a.588.588 0 00-.537-.349h-1.789a3.661 3.661 0 01-3.657-3.656V4.833a3.661 3.661 0 013.657-3.657h13.206a3.661 3.661 0 013.656 3.657v8.223a3.661 3.661 0 01-3.656 3.656h-2.425a.588.588 0 000 1.177h2.425a4.838 4.838 0 004.832-4.833V4.833A4.838 4.838 0 0023.698 0H10.492A4.838 4.838 0 005.66 4.833v8.223a4.839 4.839 0 004.833 4.833z"/><path d="M13.413 5.61a.588.588 0 00-.82.143 5.463 5.463 0 00-.996 3.155 5.504 5.504 0 005.498 5.498 5.504 5.504 0 005.498-5.498c0-.822-.184-1.635-.54-2.376l1.882-1.799a.588.588 0 10-.813-.85l-1.707 1.631a5.49 5.49 0 00-6.678-1.573.588.588 0 00.505 1.062 4.318 4.318 0 015.32 1.327l-3.67 3.506-.738-.74a.588.588 0 10-.832.832l1.146 1.146a.587.587 0 00.822.01L21.145 7.4a4.327 4.327 0 01-4.05 5.83 4.327 4.327 0 01-4.323-4.322c0-.892.271-1.75.784-2.48a.589.589 0 00-.143-.819z"/></g><defs><clipPath id="clip0_206_888"><path fill="#fff" d="M0 0h40v40H0z"/></clipPath></defs></svg>